<mxfile host="app.diagrams.net" modified="2021-10-22T12:24:52.418Z" agent="5.0 (Macintosh; Intel Mac OS X 10_15_7) AppleWebKit/537.36 (KHTML, like Gecko) Chrome/95.0.4638.54 Safari/537.36 Edg/95.0.1020.30" etag="W-iruOE1zO1NIJk1VjC_" version="15.5.7" type="github">
  <diagram id="OK6-vwCXTCh-dlWnl3EN" name="Page-1">
    <mxGraphModel dx="1298" dy="841" grid="1" gridSize="10" guides="1" tooltips="1" connect="1" arrows="1" fold="1" page="1" pageScale="1" pageWidth="850" pageHeight="1100" math="0" shadow="0">
      <root>
        <mxCell id="0" />
        <mxCell id="1" parent="0" />
        <mxCell id="GctJTzEbkkCPuwblg5-j-24" style="edgeStyle=orthogonalEdgeStyle;rounded=0;orthogonalLoop=1;jettySize=auto;html=1;exitX=0.5;exitY=1;exitDx=0;exitDy=0;entryX=0.5;entryY=0;entryDx=0;entryDy=0;" edge="1" parent="1" source="GctJTzEbkkCPuwblg5-j-1" target="GctJTzEbkkCPuwblg5-j-2">
          <mxGeometry relative="1" as="geometry" />
        </mxCell>
        <mxCell id="GctJTzEbkkCPuwblg5-j-1" value="Paddle IR Dialect" style="rounded=1;whiteSpace=wrap;html=1;fillColor=#e1d5e7;strokeColor=#9673a6;" vertex="1" parent="1">
          <mxGeometry x="330" y="110" width="120" height="50" as="geometry" />
        </mxCell>
        <mxCell id="GctJTzEbkkCPuwblg5-j-25" style="edgeStyle=orthogonalEdgeStyle;rounded=0;orthogonalLoop=1;jettySize=auto;html=1;exitX=0.5;exitY=1;exitDx=0;exitDy=0;entryX=0.5;entryY=0;entryDx=0;entryDy=0;" edge="1" parent="1" source="GctJTzEbkkCPuwblg5-j-2" target="GctJTzEbkkCPuwblg5-j-3">
          <mxGeometry relative="1" as="geometry" />
        </mxCell>
        <mxCell id="GctJTzEbkkCPuwblg5-j-2" value="MLIR Passes" style="rounded=1;whiteSpace=wrap;html=1;fillColor=#e1d5e7;strokeColor=#9673a6;" vertex="1" parent="1">
          <mxGeometry x="330" y="210" width="120" height="50" as="geometry" />
        </mxCell>
        <mxCell id="GctJTzEbkkCPuwblg5-j-3" value="HostRuntime" style="rounded=1;whiteSpace=wrap;html=1;fillColor=#d5e8d4;strokeColor=#82b366;" vertex="1" parent="1">
          <mxGeometry x="310" y="300" width="160" height="50" as="geometry" />
        </mxCell>
        <mxCell id="GctJTzEbkkCPuwblg5-j-22" style="edgeStyle=orthogonalEdgeStyle;rounded=0;orthogonalLoop=1;jettySize=auto;html=1;exitX=0.5;exitY=0;exitDx=0;exitDy=0;entryX=0;entryY=0.5;entryDx=0;entryDy=0;" edge="1" parent="1" source="GctJTzEbkkCPuwblg5-j-4" target="GctJTzEbkkCPuwblg5-j-2">
          <mxGeometry relative="1" as="geometry" />
        </mxCell>
        <mxCell id="GctJTzEbkkCPuwblg5-j-23" style="edgeStyle=orthogonalEdgeStyle;rounded=0;orthogonalLoop=1;jettySize=auto;html=1;exitX=0.5;exitY=0;exitDx=0;exitDy=0;entryX=1;entryY=0.5;entryDx=0;entryDy=0;" edge="1" parent="1" source="GctJTzEbkkCPuwblg5-j-19" target="GctJTzEbkkCPuwblg5-j-2">
          <mxGeometry relative="1" as="geometry" />
        </mxCell>
        <mxCell id="GctJTzEbkkCPuwblg5-j-28" value="" style="endArrow=none;dashed=1;html=1;dashPattern=1 3;strokeWidth=2;rounded=0;" edge="1" parent="1">
          <mxGeometry width="50" height="50" relative="1" as="geometry">
            <mxPoint x="730" y="280" as="sourcePoint" />
            <mxPoint x="100" y="280" as="targetPoint" />
          </mxGeometry>
        </mxCell>
        <mxCell id="GctJTzEbkkCPuwblg5-j-29" value="&lt;b&gt;&lt;font style=&quot;font-size: 13px&quot;&gt;Offline Analysis&lt;/font&gt;&lt;/b&gt;" style="text;html=1;align=center;verticalAlign=middle;resizable=0;points=[];autosize=1;strokeColor=none;fillColor=none;" vertex="1" parent="1">
          <mxGeometry x="580" y="170" width="110" height="20" as="geometry" />
        </mxCell>
        <mxCell id="GctJTzEbkkCPuwblg5-j-30" value="&lt;font style=&quot;font-size: 13px&quot;&gt;&lt;b&gt;Online Deploy&lt;/b&gt;&lt;/font&gt;" style="text;html=1;align=center;verticalAlign=middle;resizable=0;points=[];autosize=1;strokeColor=none;fillColor=none;" vertex="1" parent="1">
          <mxGeometry x="585" y="330" width="100" height="20" as="geometry" />
        </mxCell>
        <mxCell id="GctJTzEbkkCPuwblg5-j-31" value="" style="group" vertex="1" connectable="0" parent="1">
          <mxGeometry x="160" y="389" width="470" height="40" as="geometry" />
        </mxCell>
        <mxCell id="GctJTzEbkkCPuwblg5-j-8" value="" style="group" vertex="1" connectable="0" parent="GctJTzEbkkCPuwblg5-j-31">
          <mxGeometry width="110" height="40" as="geometry" />
        </mxCell>
        <mxCell id="GctJTzEbkkCPuwblg5-j-4" value="x86 Dialect" style="rounded=1;whiteSpace=wrap;html=1;fillColor=#e1d5e7;strokeColor=#9673a6;" vertex="1" parent="GctJTzEbkkCPuwblg5-j-8">
          <mxGeometry width="110" height="20" as="geometry" />
        </mxCell>
        <mxCell id="GctJTzEbkkCPuwblg5-j-5" value="Kernels" style="rounded=1;whiteSpace=wrap;html=1;fillColor=#d5e8d4;strokeColor=#82b366;" vertex="1" parent="GctJTzEbkkCPuwblg5-j-8">
          <mxGeometry y="20" width="110" height="20" as="geometry" />
        </mxCell>
        <mxCell id="GctJTzEbkkCPuwblg5-j-9" value="" style="group" vertex="1" connectable="0" parent="GctJTzEbkkCPuwblg5-j-31">
          <mxGeometry x="120" width="110" height="40" as="geometry" />
        </mxCell>
        <mxCell id="GctJTzEbkkCPuwblg5-j-6" value="GPU Dialect" style="rounded=1;whiteSpace=wrap;html=1;fillColor=#e1d5e7;strokeColor=#9673a6;" vertex="1" parent="GctJTzEbkkCPuwblg5-j-9">
          <mxGeometry width="110" height="20" as="geometry" />
        </mxCell>
        <mxCell id="GctJTzEbkkCPuwblg5-j-7" value="Kernels" style="rounded=1;whiteSpace=wrap;html=1;fillColor=#d5e8d4;strokeColor=#82b366;" vertex="1" parent="GctJTzEbkkCPuwblg5-j-9">
          <mxGeometry y="20" width="110" height="20" as="geometry" />
        </mxCell>
        <mxCell id="GctJTzEbkkCPuwblg5-j-10" value="" style="group" vertex="1" connectable="0" parent="GctJTzEbkkCPuwblg5-j-31">
          <mxGeometry x="240" width="110" height="40" as="geometry" />
        </mxCell>
        <mxCell id="GctJTzEbkkCPuwblg5-j-11" value="ARM CPU Dialect" style="rounded=1;whiteSpace=wrap;html=1;fillColor=#e1d5e7;strokeColor=#9673a6;" vertex="1" parent="GctJTzEbkkCPuwblg5-j-10">
          <mxGeometry width="110" height="20" as="geometry" />
        </mxCell>
        <mxCell id="GctJTzEbkkCPuwblg5-j-12" value="Kernels" style="rounded=1;whiteSpace=wrap;html=1;fillColor=#d5e8d4;strokeColor=#82b366;" vertex="1" parent="GctJTzEbkkCPuwblg5-j-10">
          <mxGeometry y="20" width="110" height="20" as="geometry" />
        </mxCell>
        <mxCell id="GctJTzEbkkCPuwblg5-j-18" value="" style="group" vertex="1" connectable="0" parent="GctJTzEbkkCPuwblg5-j-31">
          <mxGeometry x="360" width="110" height="40" as="geometry" />
        </mxCell>
        <mxCell id="GctJTzEbkkCPuwblg5-j-19" value="Other Dialect" style="rounded=1;whiteSpace=wrap;html=1;fillColor=#e1d5e7;strokeColor=#9673a6;" vertex="1" parent="GctJTzEbkkCPuwblg5-j-18">
          <mxGeometry width="110" height="20" as="geometry" />
        </mxCell>
        <mxCell id="GctJTzEbkkCPuwblg5-j-20" value="Kernels" style="rounded=1;whiteSpace=wrap;html=1;fillColor=#d5e8d4;strokeColor=#82b366;" vertex="1" parent="GctJTzEbkkCPuwblg5-j-18">
          <mxGeometry y="20" width="110" height="20" as="geometry" />
        </mxCell>
      </root>
    </mxGraphModel>
  </diagram>
</mxfile>
